<?xml version="1.0" standalone="no"?>
<!DOCTYPE svg PUBLIC "-//W3C//DTD SVG 20010904//EN"
 "http://www.w3.org/TR/2001/REC-SVG-20010904/DTD/svg10.dtd">
<svg version="1.0" xmlns="http://www.w3.org/2000/svg"
 width="96.000000pt" height="96.000000pt" viewBox="0 0 96.000000 96.000000"
 preserveAspectRatio="xMidYMid meet">
<metadata>
Created by potrace 1.11, written by Peter Selinger 2001-2013
</metadata>
<g transform="translate(0.000000,96.000000) scale(0.100000,-0.100000)"
fill="#000000" stroke="none">
<path d="M315 831 c-8 -14 -195 -670 -195 -687 0 -27 44 -23 221 25 101 27
249 66 329 86 80 21 151 43 159 49 29 22 -19 202 -78 294 -63 99 -160 175
-267 210 -77 26 -160 37 -169 23z m147 -82 c75 -25 157 -78 199 -128 34 -41
95 -162 103 -204 2 -15 8 -36 11 -47 5 -15 0 -22 -20 -30 -35 -13 -41 -8 -50
37 -11 64 -66 163 -119 215 -53 53 -113 88 -186 109 -56 16 -60 19 -49 47 10
28 32 28 111 1z m14 -144 c80 -46 146 -140 170 -242 l12 -51 -27 -5 c-14 -3
-28 -1 -30 5 -7 21 -42 48 -61 48 -30 0 -63 -38 -57 -66 4 -21 -1 -25 -32 -33
-201 -53 -243 -63 -247 -58 -3 3 0 27 8 54 10 34 19 49 33 51 52 10 72 65 35
102 -19 19 -19 20 11 126 16 59 32 111 35 115 6 11 101 -18 150 -46z"/>
<path d="M380 520 c-11 -11 -20 -29 -20 -40 0 -11 9 -29 20 -40 11 -11 29 -20
40 -20 26 0 60 34 60 60 0 11 -9 29 -20 40 -11 11 -29 20 -40 20 -11 0 -29 -9
-40 -20z"/>
</g>
</svg>
